<?xml version="1.0" standalone="no"?>
<!DOCTYPE svg PUBLIC "-//W3C//DTD SVG 20010904//EN"
 "http://www.w3.org/TR/2001/REC-SVG-20010904/DTD/svg10.dtd">
<svg version="1.0" xmlns="http://www.w3.org/2000/svg"
 width="800.000000pt" height="800.000000pt" viewBox="0 0 800.000000 800.000000"
 preserveAspectRatio="xMidYMid meet">
<metadata>
Created by potrace 1.16, written by Peter Selinger 2001-2019
</metadata>
<g transform="translate(0.000000,800.000000) scale(0.100000,-0.100000)"
fill="#000000" stroke="none">
<path d="M2240 5700 c-8 -5 -41 -10 -72 -10 -31 0 -60 -4 -63 -10 -3 -5 -29
-10 -57 -10 -40 0 -49 -3 -45 -15 5 -12 2 -12 -19 -3 -18 9 -27 9 -36 0 -7 -7
-22 -12 -35 -12 -23 0 -32 -15 -13 -22 6 -1 -15 -3 -47 -3 -36 0 -58 -4 -60
-12 -3 -7 -16 -13 -29 -13 -14 0 -35 -5 -47 -12 -21 -11 -21 -11 -2 -19 16 -6
14 -8 -10 -7 -38 2 -97 -23 -91 -39 3 -8 -1 -10 -11 -6 -11 4 -14 2 -9 -5 5
-8 -2 -12 -21 -12 -15 0 -35 -5 -43 -10 -13 -9 -13 -11 0 -21 12 -8 10 -9 -9
-4 -17 5 -22 4 -16 -5 5 -9 4 -11 -4 -6 -15 9 -73 -32 -65 -46 4 -7 2 -8 -5
-4 -16 10 -157 -94 -145 -107 3 -2 -7 -8 -21 -11 -14 -4 -23 -11 -20 -16 3 -6
-2 -10 -12 -10 -15 0 -16 -2 -3 -10 12 -8 11 -10 -5 -10 -21 0 -45 -17 -45
-32 0 -5 10 -4 23 2 21 11 21 11 2 -5 -10 -8 -24 -14 -30 -12 -11 4 -35 -17
-35 -30 0 -5 -9 -17 -21 -26 -11 -10 -18 -24 -15 -32 3 -9 0 -12 -8 -9 -15 6
-50 -42 -41 -56 3 -5 0 -8 -7 -5 -8 3 -33 -26 -65 -74 -39 -60 -49 -81 -40
-90 9 -9 8 -11 -7 -5 -16 6 -18 4 -14 -20 3 -15 3 -24 0 -22 -2 3 -13 1 -23
-5 -15 -8 -17 -14 -9 -29 9 -16 8 -18 -6 -13 -14 5 -16 1 -12 -20 3 -15 2 -24
-3 -22 -14 9 -21 -15 -9 -30 6 -8 10 -22 7 -32 -4 -14 -5 -13 -6 5 0 12 -6 22
-12 22 -8 0 -10 -12 -6 -36 3 -20 3 -34 0 -30 -11 11 -33 -16 -33 -40 0 -13
-4 -24 -9 -24 -5 0 -11 -15 -14 -32 -3 -18 -7 -42 -10 -53 -23 -87 -26 -138
-26 -380 0 -232 3 -292 22 -372 2 -7 6 -16 10 -19 4 -4 7 -25 7 -46 0 -24 4
-37 10 -33 6 4 10 -5 10 -20 0 -14 4 -24 9 -21 5 4 7 -2 4 -13 -3 -10 0 -22 6
-25 6 -4 11 -16 11 -27 0 -27 18 -24 22 4 3 18 5 16 9 -9 4 -24 2 -31 -8 -27
-20 8 -19 3 19 -72 18 -38 42 -79 48 -85 3 -3 14 -23 25 -45 11 -22 24 -43 28
-46 5 -3 8 -9 7 -13 -3 -15 50 -67 61 -60 7 4 9 3 6 -4 -9 -13 24 -72 41 -72
6 0 12 -9 12 -19 0 -11 9 -23 20 -26 11 -4 17 -11 14 -17 -5 -7 -2 -9 8 -5 12
4 14 0 10 -16 -3 -12 -2 -19 3 -15 4 4 19 -7 32 -23 15 -17 32 -28 40 -25 8 3
11 1 8 -4 -8 -14 65 -82 81 -76 8 3 11 -1 7 -11 -5 -12 -1 -14 18 -8 15 4 19
3 11 -3 -10 -7 -10 -11 2 -21 8 -7 20 -10 26 -6 5 3 10 -1 10 -9 0 -20 52 -56
82 -56 19 0 20 -2 8 -11 -12 -9 -11 -10 8 -6 13 3 20 1 16 -5 -4 -6 0 -14 7
-19 19 -12 32 -11 24 1 -3 6 1 7 10 3 13 -4 14 -8 4 -14 -16 -10 37 -33 57
-25 7 3 11 0 9 -7 -7 -16 69 -51 95 -44 18 5 19 3 8 -10 -12 -15 -9 -16 27
-10 26 4 35 3 25 -3 -21 -13 -5 -24 39 -25 28 0 37 -4 33 -14 -4 -10 3 -13 31
-9 19 2 33 0 31 -4 -3 -4 7 -14 23 -21 40 -17 776 -17 816 0 16 7 26 16 23 21
-2 4 13 6 35 4 37 -4 54 10 27 21 -7 3 2 3 19 0 21 -4 41 0 58 11 13 9 32 16
42 16 10 0 35 11 55 25 20 14 44 25 52 25 20 0 129 57 154 80 10 10 29 21 41
25 14 4 20 12 17 21 -3 9 -1 12 4 9 16 -10 52 5 47 19 -3 8 3 12 17 12 13 -1
21 5 20 15 -1 12 4 15 20 11 19 -5 20 -4 6 13 -14 16 -13 17 6 11 16 -5 34 4
74 36 93 76 175 152 181 168 3 8 12 15 20 15 24 0 21 39 -6 69 -14 16 -25 33
-25 37 0 4 -12 12 -27 17 -16 6 -22 11 -15 11 10 1 10 5 0 20 -9 15 -15 17
-25 9 -10 -8 -12 -7 -7 6 3 9 2 16 -3 16 -6 0 -16 18 -23 40 -9 28 -16 37 -22
28 -5 -9 -8 -5 -8 11 0 13 -3 22 -6 18 -3 -3 -17 15 -31 41 -13 25 -30 51 -37
56 -20 16 -66 89 -66 104 0 7 -11 25 -25 40 -14 15 -25 33 -25 40 0 9 -6 12
-16 8 -14 -5 -15 -4 -4 9 11 14 7 19 -13 16 -4 0 -6 2 -5 6 3 17 -15 62 -23
57 -5 -3 -9 5 -9 18 0 16 -3 19 -9 10 -7 -11 -9 -11 -14 1 -3 8 -18 17 -34 20
-22 4 -34 -1 -55 -21 -15 -15 -42 -43 -62 -61 -19 -19 -32 -39 -29 -45 4 -5 1
-6 -6 -1 -8 4 -28 -7 -54 -32 -23 -22 -59 -50 -79 -64 -22 -14 -38 -32 -39
-44 0 -11 -3 -14 -6 -7 -2 6 -12 12 -20 12 -12 0 -13 -3 -4 -14 10 -12 8 -13
-8 -9 -26 7 -58 -16 -40 -28 7 -4 -4 -7 -24 -7 -42 0 -60 -9 -51 -24 4 -6 2
-8 -3 -5 -6 4 -24 0 -39 -8 -16 -8 -37 -15 -46 -15 -9 0 -20 -4 -23 -10 -3 -5
-16 -10 -29 -10 -12 0 -26 -3 -30 -7 -14 -14 -56 -18 -206 -18 -136 0 -162 3
-216 23 -33 12 -68 22 -77 22 -9 0 -20 7 -25 16 -6 11 -17 15 -30 12 -13 -4
-19 -2 -16 6 5 12 -47 35 -82 37 -10 0 -14 3 -7 6 19 7 -31 53 -59 54 -13 0
-17 3 -10 6 8 3 -2 20 -28 51 -23 25 -48 61 -57 79 -8 18 -20 33 -25 33 -5 0
-6 5 -2 11 3 6 -4 25 -16 41 -24 32 -38 76 -47 141 -3 20 -9 37 -13 37 -4 0
-9 10 -9 23 -1 12 -4 60 -7 106 -4 54 -1 93 6 112 10 23 10 32 0 44 -7 9 -10
18 -6 22 3 3 6 1 6 -5 0 -7 5 -12 11 -12 8 0 10 19 6 63 -3 34 -2 49 2 32 7
-35 16 -26 25 28 4 20 12 37 18 37 6 0 8 9 5 20 -3 11 -1 18 4 14 5 -3 14 7
19 23 18 50 30 67 83 123 70 73 118 115 161 138 20 11 33 21 31 24 -2 2 23 10
56 17 32 8 62 18 65 22 3 5 14 9 26 9 15 0 18 3 10 13 -8 9 34 12 208 12 174
0 214 -2 201 -12 -14 -11 -13 -12 11 -13 15 0 29 -4 33 -10 3 -5 32 -14 65
-21 36 -7 57 -16 53 -22 -4 -6 4 -8 20 -5 16 3 24 1 21 -7 -5 -12 59 -46 78
-41 7 1 10 1 6 -1 -14 -8 -9 -23 7 -23 9 0 18 -7 21 -15 4 -8 19 -15 35 -15
20 0 27 -4 23 -13 -3 -8 11 -26 33 -43 61 -46 72 -56 137 -119 34 -33 95 -99
135 -147 40 -49 77 -88 82 -88 5 0 9 -6 9 -12 1 -19 38 -60 49 -54 5 3 7 -2 5
-11 -3 -10 6 -30 21 -45 14 -15 25 -32 25 -38 0 -6 5 -8 12 -4 7 4 8 3 4 -4
-7 -11 39 -94 55 -100 5 -2 9 -12 9 -23 0 -18 11 -24 34 -20 5 1 4 -4 -1 -11
-14 -16 10 -54 26 -43 7 3 8 0 5 -9 -3 -9 0 -22 8 -30 28 -32 36 -44 54 -82
10 -21 21 -41 24 -44 11 -9 70 -110 70 -120 0 -6 5 -10 10 -10 6 0 10 -8 10
-17 0 -15 2 -16 10 -3 8 12 10 11 10 -8 0 -15 9 -26 25 -32 14 -5 25 -12 25
-14 0 -3 -7 -3 -15 0 -8 4 -15 1 -15 -4 0 -6 9 -13 19 -17 10 -3 21 -15 24
-27 4 -13 11 -19 21 -15 8 3 17 -1 20 -9 4 -9 2 -12 -5 -8 -18 10 6 -28 30
-50 12 -11 21 -22 21 -27 0 -10 48 -66 93 -108 22 -20 51 -49 65 -65 58 -62
181 -182 202 -196 13 -8 33 -25 46 -38 14 -13 29 -20 37 -16 6 4 9 4 5 -1 -4
-4 5 -19 20 -31 15 -13 29 -19 30 -14 2 6 8 10 13 10 4 0 5 -8 2 -17 -5 -12
-2 -15 10 -10 10 4 16 2 14 -4 -1 -6 6 -16 17 -22 10 -7 32 -24 48 -39 17 -16
42 -28 57 -28 20 0 23 -2 11 -10 -12 -8 -10 -10 8 -10 13 0 32 -10 42 -22 12
-15 28 -22 54 -22 21 0 31 -3 23 -8 -15 -10 8 -28 36 -28 11 0 32 -9 48 -21
16 -11 33 -17 39 -14 5 3 10 3 10 -2 0 -15 90 -45 118 -39 15 3 21 3 14 0 -20
-9 -3 -24 27 -24 15 0 31 -4 37 -9 26 -24 118 -31 406 -31 167 0 320 3 341 6
43 8 49 23 10 25 -25 2 -25 2 -5 6 13 3 30 -1 37 -7 16 -13 50 -6 41 8 -3 5 9
6 25 4 17 -3 40 0 52 6 23 10 87 35 122 47 l20 7 -20 9 c-16 8 -15 8 8 4 16
-3 27 -1 27 5 0 6 4 9 10 5 5 -3 17 -2 27 4 10 5 31 14 47 21 24 9 27 13 15
21 -10 7 -7 8 12 4 19 -5 34 0 56 19 17 14 39 26 49 26 16 0 17 2 4 10 -12 8
-10 10 10 10 20 0 22 2 10 10 -12 8 -9 10 13 10 17 0 27 5 27 15 0 9 6 12 17
8 11 -4 14 -3 9 5 -4 7 -1 12 9 12 9 0 13 4 10 10 -4 6 1 7 11 3 13 -5 16 -3
11 10 -4 10 -2 14 6 11 19 -7 180 142 256 236 20 25 40 48 45 51 5 4 6 14 3
22 -4 10 -1 14 6 11 7 -2 23 13 37 33 14 21 29 41 34 44 5 4 6 14 3 22 -4 10
-1 14 6 12 17 -6 47 65 42 95 -3 14 -3 19 1 12 3 -6 10 -10 15 -7 17 11 49 98
43 120 -3 13 -1 26 4 29 6 4 8 -2 5 -14 -11 -41 14 -18 29 28 9 26 27 76 39
111 18 50 20 67 11 82 -9 14 -9 17 1 13 25 -9 40 111 44 350 3 162 0 232 -8
242 -6 8 -9 20 -6 29 4 8 2 17 -3 20 -6 4 -10 19 -10 34 0 15 -3 31 -7 35 -4
3 -8 14 -9 24 -10 71 -17 96 -34 126 -10 19 -22 51 -26 70 -3 20 -9 36 -13 36
-4 0 -13 17 -20 38 -21 57 -42 86 -53 70 -4 -8 -5 0 -2 20 6 32 -8 46 -20 20
-3 -7 -3 -2 0 11 4 15 2 21 -4 17 -6 -3 -8 1 -6 11 5 20 -39 77 -50 66 -4 -4
-4 0 -1 10 5 11 -5 31 -29 59 -20 23 -36 45 -36 49 0 5 -7 6 -15 3 -11 -5 -15
1 -15 20 0 23 -9 31 -32 27 -5 0 -8 5 -8 13 0 20 -29 48 -42 40 -7 -4 -8 -2
-4 5 10 16 -12 41 -38 42 -11 0 -15 3 -8 6 16 6 -3 33 -23 33 -7 0 -15 9 -18
20 -3 11 -13 23 -24 27 -10 3 -34 20 -53 37 -20 17 -48 40 -64 51 -15 11 -35
26 -42 33 -8 8 -21 11 -30 8 -9 -4 -12 -2 -8 5 4 7 -1 9 -17 5 -13 -3 -18 -3
-11 0 6 3 12 9 12 14 0 11 -40 25 -59 21 -8 -1 -10 2 -5 10 5 9 2 10 -9 6 -11
-4 -14 -2 -10 9 5 14 -22 21 -30 7 -2 -5 -2 -3 -1 4 2 7 -7 15 -19 19 -12 4
-33 15 -46 25 -13 11 -34 19 -47 19 -12 0 -25 4 -28 9 -10 15 -99 36 -156 36
-47 0 -55 3 -52 18 2 13 -4 17 -32 17 -19 0 -38 5 -41 10 -3 6 -30 10 -60 10
-30 0 -57 5 -60 10 -5 7 -64 9 -178 5 -200 -6 -278 -13 -291 -26 -6 -5 -29 -9
-53 -9 -24 0 -43 -4 -43 -10 0 -5 5 -10 12 -10 6 0 8 -3 4 -7 -4 -5 -31 -9
-59 -10 -64 -2 -135 -17 -150 -32 -6 -6 -26 -11 -44 -11 -30 0 -38 -8 -34 -33
1 -5 -3 -6 -9 -2 -6 4 -33 -1 -60 -11 -48 -17 -59 -27 -43 -37 5 -2 1 -2 -7 0
-8 2 -29 -4 -47 -14 -33 -18 -43 -33 -21 -33 6 0 8 -3 5 -6 -4 -4 -13 -1 -22
6 -10 8 -15 9 -15 1 0 -6 -8 -11 -17 -11 -21 -1 -55 -24 -47 -33 3 -3 -5 -8
-18 -13 -13 -4 -30 -15 -38 -24 -8 -9 -25 -20 -37 -24 -13 -4 -23 -11 -23 -16
0 -5 -10 -12 -22 -16 -28 -8 -89 -60 -81 -68 4 -3 0 -6 -8 -6 -17 0 -119 -91
-119 -106 0 -5 -10 -14 -22 -19 -37 -16 -33 -47 12 -97 22 -25 40 -50 40 -55
0 -4 9 -14 20 -21 11 -7 20 -16 20 -22 0 -5 36 -59 80 -119 44 -61 80 -113 80
-116 0 -13 28 -34 35 -27 5 4 5 1 1 -5 -7 -12 21 -74 37 -81 4 -2 7 -13 8 -25
0 -21 1 -21 9 -2 8 19 9 19 9 -3 1 -28 40 -112 52 -112 5 0 9 -7 9 -16 0 -10
6 -14 15 -10 9 3 15 0 15 -9 0 -26 20 -26 30 -1 5 14 15 26 22 26 9 0 8 -3 -2
-10 -8 -5 -10 -10 -4 -10 16 0 35 25 26 34 -4 4 -2 6 3 4 14 -4 76 48 68 56
-4 3 1 6 10 6 22 0 70 46 62 59 -3 6 0 8 8 5 8 -3 23 3 33 14 11 10 35 29 54
42 19 13 37 27 40 30 5 7 41 27 103 58 22 11 33 22 26 24 -7 2 20 10 59 17 40
7 74 17 78 22 3 5 14 9 24 9 11 0 17 5 15 13 -4 9 43 12 214 12 133 0 216 -4
211 -9 -13 -13 23 -30 98 -46 37 -9 57 -17 49 -22 -8 -5 -4 -8 11 -8 12 0 22
-4 22 -9 0 -5 9 -13 21 -16 24 -8 159 -137 159 -153 0 -6 9 -14 20 -17 11 -4
18 -11 14 -16 -3 -5 6 -25 20 -44 14 -18 26 -39 26 -45 0 -23 33 -81 44 -77 7
3 12 -20 13 -70 1 -93 14 -127 23 -63 4 25 5 -9 2 -75 -3 -66 -8 -127 -12
-135 -4 -8 -11 -48 -15 -87 -4 -40 -10 -73 -14 -73 -11 0 -33 -59 -26 -70 3
-5 1 -10 -4 -10 -6 0 -11 -5 -11 -12 0 -6 -11 -26 -25 -44 -14 -18 -25 -38
-25 -44 0 -7 -16 -28 -35 -47 -32 -32 -39 -45 -36 -65 0 -5 -7 -8 -17 -8 -21
-1 -54 -25 -45 -33 3 -4 -1 -7 -10 -7 -9 0 -17 -3 -17 -8 0 -4 -18 -15 -40
-25 -26 -11 -38 -22 -34 -29 5 -7 3 -8 -5 -3 -14 8 -63 -14 -56 -26 3 -4 -4
-5 -16 -2 -11 3 -30 1 -42 -4 -12 -6 -35 -16 -52 -23 -41 -18 -287 -25 -345
-10 -25 6 -56 14 -70 17 -14 3 -28 10 -31 15 -3 5 -26 10 -51 11 -26 1 -44 6
-41 12 4 13 -85 47 -100 38 -6 -3 -7 -1 -3 5 5 8 -1 12 -16 13 -22 0 -22 1 -3
9 19 8 19 9 -2 9 -13 1 -23 5 -23 10 0 13 -61 40 -79 34 -13 -4 -13 -3 -3 5
11 7 7 14 -16 30 -16 12 -32 19 -36 17 -3 -3 -4 -2 -2 1 8 11 -135 139 -151
136 -9 -2 -12 1 -8 7 7 13 -105 132 -117 125 -4 -3 -8 3 -9 13 -1 30 -35 78
-52 75 -10 -2 -15 2 -12 10 3 8 -4 23 -15 35 -11 12 -20 26 -20 30 0 4 -11 21
-25 37 -14 16 -25 35 -25 43 0 7 -4 13 -8 13 -5 0 -17 16 -28 35 -10 19 -22
35 -26 35 -5 0 -8 9 -8 21 0 11 -4 18 -9 15 -4 -3 -13 13 -20 34 -6 22 -16 40
-21 40 -6 0 -10 9 -10 21 0 11 -4 17 -10 14 -5 -3 -10 2 -10 12 0 15 -2 16
-10 3 -7 -10 -10 -11 -11 -2 -1 6 -2 15 -3 20 -1 4 -6 22 -10 40 -7 29 -16 37
-40 33 -5 -1 -6 4 -3 12 7 19 -20 77 -37 77 -9 0 -12 7 -9 20 3 11 1 20 -4 20
-5 0 -15 12 -21 26 -7 14 -16 23 -21 20 -5 -4 -7 3 -4 14 3 11 0 20 -6 20 -6
0 -11 4 -11 9 0 13 -57 100 -84 128 -36 37 -46 52 -46 63 0 6 -4 8 -10 5 -5
-3 -10 0 -10 8 0 18 -34 49 -44 40 -4 -4 -5 -1 -2 7 6 18 -29 64 -43 56 -5 -3
-8 0 -7 8 2 20 -125 158 -140 152 -8 -3 -11 0 -7 10 3 7 1 14 -4 14 -4 0 -29
19 -54 43 -91 83 -131 112 -153 109 -17 -2 -18 0 -6 8 13 9 13 11 0 20 -8 5
-21 10 -28 10 -6 0 -22 11 -34 25 -12 14 -26 25 -31 25 -4 0 -16 7 -24 16 -9
8 -24 13 -34 11 -12 -3 -16 0 -12 9 3 8 -1 14 -11 14 -9 0 -16 4 -16 8 0 10
-59 32 -86 32 -16 0 -17 2 -4 10 12 8 10 10 -8 10 -13 0 -20 4 -17 10 3 6 0
10 -9 10 -8 0 -16 -3 -19 -7 -2 -5 -2 -3 -1 4 4 15 -45 32 -82 27 -27 -3 -28
-3 -4 5 21 7 22 9 8 16 -9 4 -22 3 -29 -1 -8 -4 -9 -3 -5 4 5 8 -2 12 -18 12
-14 0 -26 4 -26 9 0 5 -19 14 -42 20 -24 5 -61 15 -83 21 -22 7 -52 13 -67 14
-14 0 -30 4 -34 9 -4 4 -24 7 -44 7 -20 0 -40 4 -45 9 -20 19 -390 38 -415 21z
m390 -60 c178 -31 314 -71 445 -129 86 -38 323 -173 335 -191 3 -4 15 -12 28
-19 60 -32 318 -275 394 -372 15 -19 50 -62 77 -96 45 -55 164 -231 185 -273
4 -8 20 -37 37 -65 16 -27 36 -66 45 -85 9 -19 24 -44 34 -55 10 -11 37 -54
60 -95 40 -70 122 -197 173 -265 12 -16 42 -57 66 -90 50 -69 306 -325 364
-364 144 -96 241 -146 372 -189 72 -24 94 -27 225 -27 160 0 224 15 345 78
122 63 185 113 254 202 82 106 135 214 153 313 23 123 10 396 -21 437 -4 5
-15 29 -24 51 -14 36 -49 96 -75 129 -4 6 -18 26 -32 45 -32 47 -95 110 -109
110 -6 0 -11 4 -11 8 0 13 -79 65 -135 89 -171 73 -144 68 -345 68 l-185 0
-115 -41 c-126 -44 -274 -133 -379 -227 -136 -122 -169 -150 -177 -149 -8 0
-38 48 -90 147 -23 43 -123 201 -146 230 -15 18 -103 139 -120 165 -9 14 -30
41 -47 60 -36 40 -37 70 -3 85 12 5 25 17 28 25 6 18 109 103 175 145 26 17
84 55 130 86 107 71 268 151 361 179 40 12 98 30 128 40 124 41 237 55 445 55
169 0 216 -4 300 -23 108 -24 325 -91 346 -108 8 -6 46 -27 85 -46 111 -56
263 -167 357 -263 75 -76 184 -206 224 -268 86 -132 173 -343 218 -532 26
-105 26 -117 22 -345 -4 -252 -12 -298 -81 -496 -36 -105 -137 -301 -190 -368
-25 -33 -46 -63 -46 -67 0 -4 -48 -56 -107 -116 -111 -112 -165 -156 -312
-256 -32 -21 -220 -113 -275 -134 -239 -89 -552 -123 -801 -87 -109 16 -344
86 -415 124 -19 10 -64 33 -100 49 -228 107 -549 377 -769 646 -126 154 -139
171 -188 253 -68 114 -81 137 -99 167 -9 16 -22 34 -29 41 -6 7 -25 34 -42 61
-17 26 -63 100 -102 164 -40 64 -100 147 -132 185 -33 38 -83 98 -112 134 -28
36 -89 99 -136 140 -46 41 -96 86 -111 100 -69 62 -243 168 -325 198 -18 6
-23 11 -12 11 26 1 166 -71 245 -126 143 -100 292 -241 406 -383 29 -36 56
-70 106 -131 17 -20 30 -40 30 -45 0 -4 8 -17 18 -28 11 -12 54 -78 96 -148
43 -71 82 -131 87 -134 8 -4 40 -58 109 -182 24 -42 53 -85 72 -106 10 -11 18
-23 18 -27 0 -5 10 -19 23 -33 12 -14 33 -39 47 -55 14 -17 32 -38 40 -47 8
-10 35 -42 60 -73 81 -99 371 -371 395 -371 4 0 22 -12 40 -27 63 -54 77 -64
170 -120 40 -24 221 -110 285 -135 171 -67 370 -108 530 -107 177 0 536 62
575 100 5 5 15 9 21 9 19 0 219 91 249 113 5 4 35 24 65 44 135 90 338 282
376 354 8 16 18 29 23 29 20 0 182 301 197 365 4 17 15 48 24 70 10 22 23 63
28 90 6 28 16 70 23 95 9 31 13 120 13 295 0 209 -3 257 -17 295 -9 25 -17 53
-17 64 0 38 -85 270 -120 326 -5 8 -24 44 -42 80 -18 35 -41 73 -50 82 -10 10
-18 23 -18 29 0 6 -11 20 -25 31 -14 11 -25 24 -25 30 0 5 -12 22 -27 37 -16
15 -59 61 -97 101 -83 89 -241 216 -321 259 -22 12 -47 25 -55 30 -8 5 -32 17
-52 25 -20 9 -40 21 -43 26 -3 6 -13 10 -22 10 -8 0 -29 6 -46 14 -58 24 -171
58 -252 74 -115 23 -514 22 -644 -1 -51 -9 -106 -23 -122 -31 -16 -8 -43 -17
-61 -21 -76 -15 -189 -64 -333 -144 -44 -24 -83 -49 -86 -54 -4 -5 -16 -14
-27 -20 -11 -7 -41 -27 -67 -44 -25 -18 -48 -33 -51 -33 -10 0 -130 -103 -152
-131 -13 -16 -30 -29 -38 -29 -19 0 -18 -34 2 -51 16 -13 89 -107 162 -209 63
-87 119 -176 157 -245 21 -38 46 -81 55 -95 10 -14 21 -35 25 -48 7 -23 9 -21
63 30 143 134 190 171 337 264 42 26 103 53 144 64 20 5 61 18 91 29 47 17 79
20 225 20 118 0 181 -4 205 -13 19 -8 51 -19 70 -26 169 -60 289 -159 410
-340 16 -25 30 -50 30 -56 0 -5 10 -30 21 -54 12 -24 24 -62 27 -85 2 -22 9
-48 14 -57 14 -28 20 -189 8 -243 -6 -27 -15 -72 -20 -100 -10 -52 -51 -151
-80 -195 -9 -14 -30 -45 -46 -69 -83 -127 -238 -237 -413 -294 -56 -18 -90
-22 -221 -22 -134 0 -164 3 -223 22 -82 27 -206 81 -227 98 -8 7 -37 25 -65
40 -118 64 -343 277 -465 439 -41 54 -87 115 -102 135 -15 20 -31 43 -35 51
-3 8 -15 26 -26 40 -10 14 -25 39 -33 55 -8 17 -26 48 -39 70 -14 22 -28 47
-32 55 -3 8 -17 25 -30 37 -13 12 -23 29 -23 37 0 8 -11 32 -25 52 -14 20 -25
42 -25 49 0 6 -9 20 -20 30 -11 10 -20 23 -20 29 0 5 -11 26 -24 45 -13 20
-44 68 -69 106 -25 39 -55 79 -66 89 -12 11 -21 23 -21 28 0 13 -142 179 -215
253 -65 64 -240 215 -251 215 -3 0 -23 12 -43 28 -38 28 -43 32 -131 83 -81
48 -242 129 -257 129 -7 0 -27 6 -45 14 -61 26 -213 65 -278 72 -36 4 -70 11
-76 16 -7 5 -106 7 -225 5 -223 -4 -358 -20 -464 -55 -33 -10 -89 -29 -125
-40 -36 -12 -90 -34 -120 -51 -30 -17 -71 -38 -90 -48 -39 -20 -160 -100 -175
-117 -5 -6 -28 -24 -50 -40 -22 -17 -49 -38 -60 -48 -82 -77 -173 -178 -181
-200 -3 -10 -9 -18 -13 -18 -5 0 -21 -19 -37 -42 -43 -64 -51 -78 -80 -135
-14 -29 -29 -53 -33 -53 -4 0 -13 -15 -19 -32 -6 -18 -23 -64 -37 -103 -14
-38 -33 -92 -41 -120 -51 -174 -53 -195 -54 -467 0 -179 9 -287 27 -324 6 -11
16 -46 23 -79 7 -33 17 -64 20 -70 4 -5 13 -28 20 -50 13 -45 32 -89 65 -155
50 -99 74 -138 132 -207 24 -28 43 -55 43 -60 0 -4 9 -14 20 -21 11 -7 20 -17
20 -24 0 -13 143 -158 156 -158 5 0 25 -16 44 -36 69 -69 261 -181 415 -242
307 -120 675 -136 1000 -41 55 16 109 33 120 38 11 6 54 24 95 41 105 44 119
50 175 86 28 17 68 42 90 54 35 21 149 102 182 130 6 5 38 31 70 57 107 86
129 121 87 137 -8 3 -14 12 -14 19 0 8 -10 22 -21 33 -19 16 -145 188 -174
235 -5 10 -28 43 -49 75 -77 116 -86 130 -86 136 0 10 -62 108 -68 108 -3 0
-33 -26 -66 -58 -34 -31 -87 -80 -120 -107 -32 -28 -67 -58 -77 -67 -11 -10
-21 -18 -23 -18 -2 0 -37 -19 -78 -43 -117 -68 -177 -95 -273 -123 -82 -24
-102 -26 -230 -22 -120 4 -152 8 -225 33 -47 15 -92 33 -100 40 -8 7 -25 16
-36 19 -12 4 -29 15 -39 26 -10 11 -24 20 -31 20 -15 0 -174 148 -174 162 0 6
-6 16 -14 22 -22 18 -95 161 -110 218 -8 29 -20 69 -25 88 -17 55 -14 266 5
325 9 28 20 66 26 85 5 19 28 73 51 120 77 155 244 299 417 360 19 7 51 18 70
26 50 19 337 19 409 -1 30 -8 59 -19 64 -24 15 -15 4 -14 -45 7 -36 14 -75 17
-223 17 -195 0 -167 5 -350 -68 -59 -23 -173 -114 -244 -194 -105 -118 -181
-327 -181 -499 0 -108 36 -256 85 -355 37 -72 124 -188 167 -222 113 -88 179
-125 293 -164 73 -26 92 -28 225 -27 199 0 269 21 485 142 88 50 146 96 278
220 72 69 90 82 102 72 8 -7 15 -17 15 -22 0 -10 12 -30 107 -181 59 -92 142
-213 185 -269 15 -20 28 -41 28 -47 0 -5 3 -11 8 -13 13 -6 92 -105 92 -116 0
-19 -128 -132 -263 -230 -83 -61 -263 -169 -305 -183 -21 -7 -47 -18 -59 -26
-28 -19 -107 -48 -226 -84 -268 -81 -642 -79 -897 5 -241 80 -379 155 -560
307 -82 69 -210 203 -210 219 0 4 -9 15 -19 24 -51 46 -167 244 -207 355 -14
36 -28 75 -33 86 -19 44 -61 214 -71 288 -24 181 -7 465 38 622 29 99 100 286
116 304 8 9 21 32 30 51 27 57 84 146 116 180 8 9 33 38 54 66 47 58 194 204
207 204 5 0 18 9 29 20 34 34 139 103 239 157 153 83 340 137 611 177 82 12
295 4 400 -14z"/>
</g>
</svg>
