<?xml version="1.0" standalone="no"?>
<!DOCTYPE svg PUBLIC "-//W3C//DTD SVG 20010904//EN"
 "http://www.w3.org/TR/2001/REC-SVG-20010904/DTD/svg10.dtd">
<svg version="1.0" xmlns="http://www.w3.org/2000/svg"
 width="896.000000pt" height="896.000000pt" viewBox="0 0 896.000000 896.000000"
 preserveAspectRatio="xMidYMid meet">
<metadata>
Created by potrace 1.16, written by Peter Selinger 2001-2019
</metadata>
<g transform="translate(0.000000,896.000000) scale(0.100000,-0.100000)"
fill="#000000" stroke="none">
<path d="M2505 6380 c-3 -5 -37 -10 -75 -10 -38 0 -72 -4 -75 -10 -3 -5 -31
-10 -61 -10 -30 0 -54 -4 -54 -9 0 -11 106 -18 146 -10 l29 6 -30 5 c-16 2
110 5 280 5 171 0 294 -4 275 -7 l-35 -7 35 -3 c19 -1 58 -2 85 -1 39 0 44 -2
25 -8 l-25 -8 25 -4 c14 -2 44 -2 67 2 23 3 40 2 37 -3 -3 -4 9 -8 25 -8 17 0
31 -4 31 -9 0 -5 -16 -5 -37 0 -55 12 -64 10 -20 -6 24 -9 55 -12 83 -8 27 3
44 2 44 -4 0 -6 -12 -8 -27 -6 -24 4 -26 3 -10 -7 10 -7 31 -9 49 -5 21 5 28
4 24 -4 -5 -7 3 -11 23 -11 16 0 33 5 36 10 4 6 -5 10 -19 10 -14 0 -26 4 -26
9 0 10 -143 50 -205 58 -22 3 -44 9 -49 14 -6 5 -29 9 -52 9 -24 0 -45 4 -48
9 -4 5 -103 8 -234 7 -125 -2 -152 -1 -59 1 99 2 167 7 167 13 0 14 -337 13
-345 0z"/>
<path d="M3530 6161 c0 -19 60 -53 81 -46 16 5 20 3 17 -6 -6 -16 67 -63 82
-54 6 4 9 1 8 -6 -2 -7 20 -26 48 -43 100 -60 167 -108 191 -137 14 -16 29
-27 33 -24 10 6 51 -25 46 -34 -2 -3 8 -17 22 -31 17 -17 21 -18 12 -5 -7 11
8 -4 34 -33 26 -28 52 -49 58 -46 6 4 8 2 4 -4 -3 -6 5 -19 19 -30 13 -11 21
-22 18 -26 -3 -3 1 -6 10 -6 10 0 17 -7 17 -16 0 -8 5 -12 10 -9 6 3 10 -1 10
-9 0 -9 6 -16 14 -16 8 0 18 -5 22 -12 5 -7 3 -8 -5 -3 -27 16 8 -31 58 -78
28 -26 51 -53 51 -60 0 -6 11 -22 24 -35 18 -16 26 -19 32 -10 4 6 2 14 -4 16
-7 2 -12 11 -12 19 0 12 -3 13 -14 4 -12 -10 -13 -8 -9 10 4 14 2 20 -4 16 -6
-4 -14 4 -17 18 -4 14 -11 25 -16 25 -6 0 -10 8 -10 18 0 14 -2 15 -10 2 -8
-12 -10 -12 -10 5 0 25 -56 89 -69 80 -6 -3 -9 0 -6 8 3 7 -25 45 -65 88 -58
61 -72 71 -81 59 -8 -12 -9 -10 -4 8 3 12 2 22 -2 22 -5 0 -33 23 -62 50 -29
28 -58 50 -63 50 -6 0 -19 9 -29 21 -10 11 -23 18 -28 14 -7 -4 -8 0 -4 11 5
13 2 15 -18 10 -13 -3 -18 -3 -11 0 21 10 13 26 -10 20 -13 -3 -17 -3 -10 0 6
3 9 10 6 15 -3 6 -11 5 -20 -2 -8 -6 -17 -9 -21 -5 -3 3 -1 6 5 6 28 0 9 20
-25 26 -21 4 -32 9 -25 11 22 8 13 25 -10 18 -18 -5 -19 -4 -8 4 12 8 11 11
-5 17 -11 5 -26 14 -34 21 -7 8 -25 12 -40 10 -14 -2 -20 -2 -13 0 20 7 14 17
-20 32 -18 8 -39 21 -47 29 -8 8 -26 12 -43 10 -28 -5 -39 6 -15 15 6 3 2 6
-10 6 -13 1 -23 -3 -23 -8z"/>
<path d="M5082 6084 c-7 -8 -10 -19 -6 -26 4 -7 3 -8 -4 -4 -15 9 -54 -12 -46
-25 3 -6 0 -9 -7 -7 -14 2 -61 -24 -87 -49 -7 -7 -19 -13 -26 -13 -7 0 -25
-13 -41 -30 -16 -16 -36 -30 -44 -30 -14 0 -14 -1 -1 -10 12 -8 12 -10 -5 -10
-17 0 -18 -2 -5 -11 12 -9 12 -10 -5 -7 -20 5 -69 -35 -58 -46 4 -3 1 -6 -6
-6 -7 0 -9 -5 -5 -12 6 -10 5 -10 -8 -1 -12 11 -18 10 -32 -6 -10 -11 -14 -25
-10 -36 6 -15 4 -17 -11 -12 -9 4 -24 2 -31 -4 -16 -13 -19 -69 -4 -69 6 0 10
16 10 35 0 19 5 35 11 35 6 0 8 -7 5 -17 -6 -14 -2 -12 17 5 13 12 29 22 35
22 7 0 12 6 12 13 0 8 9 22 20 32 11 10 17 22 13 28 -4 6 0 8 10 4 10 -3 17
-2 17 2 0 5 16 18 36 30 19 12 32 26 29 31 -4 6 -1 9 7 8 7 -2 12 3 10 11 -2
8 3 11 12 8 8 -3 29 5 47 19 18 13 29 24 23 24 -5 0 14 12 41 28 89 49 155 94
149 103 -8 14 -48 10 -62 -7z"/>
<path d="M1191 5663 c-11 -21 -20 -34 -21 -29 0 11 -80 -101 -80 -113 0 -4 -9
-17 -21 -30 -12 -13 -19 -30 -16 -41 3 -14 1 -17 -11 -13 -12 5 -14 1 -10 -20
3 -15 2 -25 -1 -23 -3 3 -14 -2 -24 -9 -16 -11 -17 -17 -6 -37 12 -22 11 -22
-6 -8 -17 14 -18 13 -11 -30 6 -42 6 -44 -8 -25 -15 19 -15 19 -16 -7 0 -16
-4 -28 -10 -28 -5 0 -10 -11 -10 -25 0 -14 -7 -36 -15 -48 -15 -24 -18 -120
-2 -110 4 2 5 25 1 49 -4 32 -3 44 6 44 7 0 10 -8 7 -20 -3 -11 -1 -18 4 -14
5 3 9 14 9 24 0 10 5 22 10 25 6 4 8 21 4 42 -6 30 -4 35 8 31 11 -5 20 8 33
45 10 29 32 71 48 94 19 27 28 49 24 62 -3 12 -1 19 3 16 5 -3 15 4 24 16 12
17 13 27 4 43 -10 18 -9 19 4 8 12 -10 18 -9 28 3 7 8 9 23 6 32 -4 10 -4 14
0 10 11 -10 34 13 34 34 0 11 5 19 11 19 5 0 7 5 4 10 -3 6 0 10 8 10 8 0 22
8 31 19 15 17 15 19 1 25 -24 9 -23 9 -44 -31z"/>
<path d="M7696 5428 c-5 -26 -2 -36 15 -49 12 -9 19 -21 15 -27 -7 -12 34
-103 44 -97 4 2 7 -9 8 -25 0 -16 4 -35 9 -42 4 -7 8 -20 8 -28 0 -8 5 -14 10
-13 6 1 11 -8 12 -20 1 -12 5 -37 9 -56 l7 -34 13 29 14 29 -7 -35 c-9 -50 -6
-97 8 -123 7 -12 12 -23 11 -24 -1 -2 -2 -11 -2 -20 0 -12 3 -14 8 -6 4 6 7
-130 7 -304 0 -173 -3 -304 -7 -291 -6 23 -6 23 -8 -2 -1 -14 -3 -33 -5 -44
-2 -10 1 -30 6 -45 9 -25 9 -25 -7 -6 -15 19 -16 16 -11 -45 6 -62 6 -64 -8
-35 -15 30 -15 30 -10 -20 3 -35 2 -44 -4 -30 -10 20 -14 12 -14 -27 0 -9 -5
-16 -11 -15 -7 1 -10 -13 -9 -38 2 -30 1 -35 -6 -20 -7 16 -9 12 -9 -18 0 -20
4 -40 9 -43 5 -3 9 4 9 15 0 12 5 21 10 21 6 0 10 13 10 28 0 15 4 32 10 38
16 16 50 135 57 197 3 31 9 57 13 57 16 0 23 84 27 329 2 167 0 258 -7 265 -5
5 -10 23 -10 38 0 15 -4 28 -10 28 -5 0 -10 16 -10 35 0 19 -5 35 -11 35 -5 0
-7 4 -4 10 8 12 -15 129 -26 136 -5 3 -9 14 -9 25 0 21 -16 26 -23 7 -3 -7 -3
3 0 23 3 21 1 39 -6 43 -6 4 -11 16 -11 27 0 11 -4 17 -10 14 -5 -3 -10 1 -10
10 0 9 -12 41 -26 71 -19 40 -29 52 -38 45 -9 -8 -11 -2 -8 24 5 44 -3 46 -12
3z"/>
<path d="M2860 5384 l-25 -14 33 0 c17 0 32 -4 32 -10 0 -5 8 -10 18 -10 10 0
23 -5 28 -10 6 -6 32 -12 57 -13 46 -2 60 -10 35 -20 -7 -3 0 -6 15 -6 16 -1
26 3 22 9 -3 6 1 7 10 3 13 -5 14 -7 3 -14 -20 -13 21 -40 52 -34 17 4 21 3
11 -3 -15 -11 3 -27 19 -17 6 3 7 -1 4 -9 -4 -10 -1 -16 9 -16 8 0 20 -6 26
-14 7 -8 25 -18 41 -21 20 -4 27 -11 23 -21 -3 -8 -1 -14 4 -14 4 0 21 -12 36
-26 16 -15 34 -23 43 -20 9 3 12 2 9 -5 -7 -10 30 -49 47 -49 5 0 6 -4 3 -10
-3 -5 -1 -10 4 -10 14 0 121 -107 121 -121 0 -6 5 -7 10 -4 6 3 10 1 10 -4 0
-6 8 -19 18 -30 9 -10 39 -46 66 -80 28 -33 56 -61 63 -61 7 0 13 -7 13 -15 0
-9 11 -27 25 -41 14 -14 25 -30 25 -37 0 -7 14 -26 30 -44 17 -18 30 -40 31
-50 0 -10 3 -13 6 -5 2 6 9 12 14 12 4 0 6 -6 3 -14 -6 -17 24 -86 37 -86 5 0
9 -7 9 -16 0 -8 5 -12 10 -9 6 3 10 -5 10 -18 0 -25 15 -37 37 -30 7 2 9 11 6
19 -4 12 -8 12 -22 2 -14 -12 -15 -11 -1 6 13 16 12 20 -10 40 -14 11 -25 28
-25 36 0 8 -7 14 -15 12 -8 -2 -12 0 -8 3 9 10 -19 65 -33 65 -6 0 -7 5 -4 10
8 13 -14 42 -25 35 -5 -3 -6 3 -3 13 3 13 -6 28 -26 45 -17 14 -31 32 -31 40
0 8 -15 25 -34 38 -19 13 -32 27 -30 31 3 4 0 8 -5 8 -6 0 -11 7 -11 16 0 8
-4 12 -10 9 -5 -3 -10 0 -10 8 0 18 -65 88 -74 80 -3 -4 -6 2 -6 13 0 21 -32
54 -52 54 -6 0 -8 3 -5 7 9 9 -22 43 -40 43 -7 0 -12 3 -11 8 5 15 -29 51 -55
57 -15 4 -25 11 -22 15 7 11 -35 41 -47 34 -5 -3 -8 -2 -7 3 5 19 -13 41 -28
36 -10 -4 -14 -2 -9 5 3 6 -3 13 -14 17 -11 3 -25 15 -30 26 -6 10 -20 19 -30
19 -11 0 -20 5 -20 10 0 17 -60 48 -81 43 -13 -4 -19 -1 -17 8 4 20 -79 59
-124 59 -21 0 -38 4 -38 10 0 5 8 7 18 3 10 -4 14 -2 9 3 -5 5 -25 9 -45 9
-24 0 -36 4 -34 13 3 15 -6 14 -38 -4z"/>
<path d="M5830 5389 c-12 -8 -10 -9 9 -4 17 5 21 4 16 -5 -5 -8 -21 -10 -50
-5 -29 4 -46 2 -51 -6 -5 -9 -1 -10 14 -7 12 4 22 2 22 -4 0 -6 -14 -8 -32 -6
-38 6 -123 -26 -113 -43 4 -6 0 -9 -11 -7 -12 2 -18 -2 -16 -11 2 -9 -3 -11
-13 -7 -9 3 -22 3 -28 -1 -7 -4 -3 -9 9 -14 14 -6 11 -8 -16 -8 -26 -1 -31 -4
-20 -11 16 -10 17 -10 -30 -14 -8 -1 -14 -7 -13 -13 1 -6 -9 -10 -23 -10 -26
0 -56 -31 -47 -47 4 -5 -4 -7 -16 -3 -26 6 -50 -27 -26 -37 29 -11 64 21 50
45 -4 5 1 6 9 3 13 -5 71 27 86 47 5 6 42 27 123 67 23 12 33 22 25 24 -7 3
13 8 44 12 32 4 60 12 63 17 4 5 17 9 31 9 13 0 24 5 24 10 0 6 12 10 27 10
26 0 26 1 7 15 -23 17 -34 18 -54 4z"/>
<path d="M2274 5369 c-5 -9 -1 -10 14 -7 12 4 22 2 22 -4 0 -6 -14 -8 -32 -6
-36 6 -112 -27 -102 -43 3 -5 0 -8 -8 -7 -7 2 -12 -3 -10 -11 2 -9 -3 -11 -14
-7 -20 8 -67 -31 -57 -47 4 -6 0 -8 -10 -4 -11 4 -17 1 -17 -7 0 -8 -9 -16
-21 -19 -11 -3 -23 -15 -26 -26 -3 -11 -9 -18 -14 -15 -5 3 -9 -2 -9 -10 0 -9
-4 -15 -9 -13 -5 1 -9 -1 -10 -5 -1 -5 -10 -17 -21 -28 -12 -12 -18 -25 -15
-31 4 -5 1 -8 -7 -7 -8 2 -12 -4 -10 -16 2 -11 -1 -15 -7 -11 -6 3 -11 -1 -11
-9 0 -9 -5 -16 -11 -16 -13 0 -39 -62 -39 -95 0 -15 -4 -24 -10 -20 -9 6 -14
-8 -11 -27 0 -5 -4 -8 -9 -8 -7 0 -8 -23 -4 -67 5 -48 4 -64 -4 -59 -6 4 -9
21 -7 39 4 25 2 23 -11 -13 -11 -31 -16 -88 -17 -183 -2 -127 5 -181 16 -125
2 13 3 3 1 -22 -2 -25 2 -66 9 -92 l13 -47 11 38 c8 24 9 48 3 67 -8 27 -8 26
-10 -16 -2 -41 -3 -42 -9 -15 -4 17 -3 41 2 55 5 16 4 38 -3 60 -16 49 -7 179
18 274 12 43 22 89 22 102 0 13 5 24 11 24 7 0 9 13 6 38 -3 20 -3 29 -1 20 9
-30 27 -21 20 10 -5 19 -4 23 3 12 8 -12 11 -11 16 5 15 43 39 83 81 131 24
27 42 54 39 61 -2 7 2 10 11 6 14 -5 20 12 7 20 -5 2 -2 2 5 0 7 -1 31 12 53
29 35 28 38 33 22 40 -13 6 -11 7 8 3 17 -3 33 2 47 15 12 11 29 20 39 20 14
0 15 2 5 9 -9 5 4 10 37 15 27 4 53 11 56 16 3 6 18 10 33 10 36 0 16 16 -30
24 -24 4 -39 2 -44 -5z"/>
<path d="M6420 5373 c-33 -6 -50 -23 -23 -23 11 0 37 -7 58 -16 20 -8 47 -14
59 -13 35 2 42 -2 21 -12 -16 -7 -14 -9 12 -6 18 2 30 0 27 -5 -9 -15 23 -37
47 -32 20 4 21 3 5 -4 -14 -6 -16 -11 -8 -16 7 -4 17 -4 22 -1 6 4 9 2 8 -3
-2 -5 23 -38 55 -73 31 -35 64 -72 72 -82 9 -10 20 -15 24 -12 5 3 7 -3 5 -13
-3 -9 4 -26 14 -38 10 -11 22 -26 25 -34 4 -11 6 -10 6 3 1 10 6 15 11 12 6
-4 8 -11 4 -16 -10 -17 7 -86 27 -107 13 -14 19 -37 20 -69 1 -45 2 -46 9 -16
4 18 13 39 19 47 10 12 8 17 -7 25 -13 7 -18 18 -15 30 3 10 0 22 -6 25 -7 4
-8 1 -5 -8 3 -9 1 -16 -4 -16 -6 0 -10 18 -9 40 1 31 -5 46 -26 68 -15 16 -24
32 -20 36 4 4 -1 4 -10 0 -10 -3 -17 -3 -15 2 1 5 -3 24 -10 43 -9 27 -16 32
-32 28 -17 -4 -19 -3 -9 9 8 10 8 14 0 14 -6 0 -11 5 -11 12 0 22 -71 87 -88
81 -9 -4 -13 -2 -9 4 9 14 -40 54 -57 47 -8 -3 -16 4 -19 17 -4 13 -9 20 -13
17 -3 -4 -15 2 -27 13 -21 20 -33 22 -79 19 -16 -1 -28 3 -28 9 0 6 7 7 17 4
11 -4 14 -3 9 5 -4 7 -10 11 -14 11 -4 -1 -18 -4 -32 -6z"/>
<path d="M859 4977 c-21 -90 -20 -721 1 -789 8 -27 18 -48 22 -48 4 0 9 -21 9
-47 1 -30 4 -37 6 -20 2 15 9 27 14 27 5 0 7 -17 3 -39 -4 -27 -1 -50 10 -72
9 -18 16 -40 16 -51 0 -24 12 -23 28 3 9 14 10 19 2 14 -9 -5 -10 -1 -5 14 5
15 2 21 -10 21 -9 0 -13 4 -10 10 3 5 -2 35 -12 67 -9 32 -17 62 -17 66 -1 4
-5 11 -11 15 -31 22 -33 53 -33 441 0 261 3 393 10 398 7 4 9 -4 4 -23 -6 -22
-5 -26 4 -18 12 12 4 80 -9 89 -4 2 -14 -24 -22 -58z"/>
<path d="M4686 4984 c-4 -9 -2 -12 5 -8 8 4 9 -3 4 -24 -4 -21 -2 -33 8 -39 8
-4 22 -21 33 -38 10 -16 27 -38 37 -47 10 -9 18 -19 18 -22 -3 -24 1 -36 9
-31 6 3 10 -1 10 -10 0 -10 5 -13 12 -9 7 4 8 3 4 -5 -4 -6 -2 -18 4 -26 7 -8
9 -15 5 -15 -4 0 -1 -7 6 -16 7 -9 18 -26 24 -38 7 -11 17 -20 23 -19 6 2 9
-4 6 -12 -4 -8 -1 -15 6 -15 6 0 9 -4 6 -8 -7 -11 23 -54 33 -48 4 3 8 -5 8
-16 1 -12 18 -36 37 -54 19 -18 31 -35 28 -39 -4 -3 1 -3 11 1 26 9 25 11 -43
91 -5 7 -10 17 -10 23 0 5 -4 10 -9 10 -5 0 -13 10 -16 21 -11 33 -69 108 -81
104 -6 -2 -9 9 -6 27 3 19 1 28 -5 25 -6 -4 -16 12 -23 34 -8 23 -20 43 -27
46 -7 3 -13 14 -13 25 0 10 -4 16 -10 13 -5 -3 -11 4 -11 17 -1 16 -3 18 -6 6
-7 -29 -30 1 -25 34 3 16 0 28 -7 28 -6 0 -11 5 -11 11 0 6 -6 17 -14 24 -12
12 -15 12 -20 -1z"/>
<path d="M6938 4800 c-3 -19 -5 -131 -4 -249 1 -178 0 -209 -11 -185 l-12 29
-1 -42 c0 -24 -3 -43 -8 -43 -13 0 -36 -64 -37 -102 0 -28 -3 -34 -12 -26 -9
7 -13 7 -13 -1 0 -7 -8 -21 -19 -32 -10 -11 -22 -34 -25 -51 -3 -17 -9 -28
-12 -25 -7 7 -18 -4 -52 -47 -12 -15 -20 -32 -17 -36 3 -4 -7 -11 -21 -14 -36
-9 -56 -30 -42 -44 8 -8 5 -9 -11 -5 -13 3 -21 1 -21 -7 0 -7 7 -10 16 -6 8 3
12 2 9 -4 -3 -6 -17 -7 -29 -4 -14 3 -29 -1 -39 -10 -8 -9 -23 -16 -31 -16
-19 0 -21 -16 -3 -23 6 -3 -3 -3 -20 0 -32 5 -48 -10 -20 -20 6 -2 1 -2 -12 0
-19 3 -22 1 -17 -14 6 -14 5 -16 -5 -5 -15 14 -42 16 -67 3 -9 -5 -26 -13 -37
-17 -18 -6 -17 -8 10 -15 18 -4 6 -5 -31 -2 -40 3 -64 1 -68 -6 -10 -15 -292
-15 -302 0 -4 7 -28 9 -68 6 -37 -3 -49 -2 -31 2 27 7 28 9 10 15 -11 4 -30
13 -43 19 -13 6 -46 11 -75 11 -29 0 -44 2 -34 4 9 2 17 8 17 13 0 11 -27 11
-54 0 -16 -6 -14 -9 15 -21 19 -8 42 -13 53 -11 11 1 16 -2 12 -8 -7 -11 1
-14 44 -13 19 1 20 -1 6 -5 -14 -4 -4 -10 35 -24 47 -17 83 -19 264 -19 182
-1 217 2 259 18 29 12 43 22 35 25 -8 3 5 6 29 6 23 1 42 5 42 10 0 5 14 12
30 16 17 4 35 15 41 26 5 11 14 17 18 14 5 -2 14 2 21 10 7 8 17 15 22 15 16
0 89 61 83 70 -3 4 5 10 16 13 13 4 18 10 14 18 -5 7 -3 10 6 7 15 -5 55 39
45 49 -3 3 6 14 19 25 14 11 22 24 19 30 -4 7 -2 8 4 4 8 -4 16 4 23 21 6 15
18 37 27 47 13 14 14 20 5 23 -7 3 -13 12 -12 21 0 11 2 12 6 5 10 -26 22 -12
16 19 -4 22 -3 29 6 24 6 -4 8 -12 5 -18 -4 -7 -2 -8 5 -4 6 4 9 16 6 26 -3
10 0 22 6 26 8 5 9 3 4 -6 -6 -9 -4 -11 4 -5 7 4 11 16 8 26 -3 10 -2 21 3 24
13 8 20 79 10 119 -4 21 -5 35 0 30 4 -5 10 -18 13 -29 4 -17 5 -16 6 5 5 79
5 220 0 220 -3 0 -4 15 -3 33 2 17 1 23 -2 12 -16 -61 -28 -61 -14 0 5 22 5
56 1 75 l-7 35 -6 -35z"/>
<path d="M5050 4440 c0 -6 -6 -8 -12 -5 -7 4 -4 -1 6 -9 15 -12 16 -16 5 -16
-10 -1 -9 -3 4 -11 9 -5 17 -16 17 -24 0 -7 15 -26 33 -40 17 -15 25 -23 17
-19 -8 4 0 -10 19 -32 46 -54 121 -124 132 -124 6 0 7 -4 4 -10 -5 -9 7 -14
26 -12 4 1 6 -6 5 -16 0 -9 5 -16 12 -14 15 3 42 -21 42 -38 0 -6 5 -8 10 -5
6 3 10 -1 10 -9 0 -11 10 -16 28 -17 24 0 25 -1 7 -9 -14 -6 -16 -9 -5 -10 8
-2 19 -2 23 -1 5 1 6 -3 3 -8 -8 -13 75 -67 97 -63 9 2 17 8 17 14 0 6 -9 8
-20 5 -11 -3 -18 -1 -14 4 3 5 -7 9 -23 10 -25 0 -26 1 -8 9 11 5 14 9 7 9
-13 1 -52 34 -161 139 -36 35 -67 58 -69 52 -2 -5 -8 -8 -12 -5 -5 3 -7 12 -4
20 3 8 -4 20 -15 27 -12 7 -21 18 -21 25 0 7 -7 13 -15 13 -8 0 -15 3 -15 8
-1 16 -56 68 -69 64 -8 -3 -11 0 -7 7 4 6 -1 26 -11 43 -23 41 -43 64 -43 48z"/>
<path d="M1838 4344 c-13 -12 -10 -96 3 -89 6 4 9 0 7 -11 -2 -11 2 -18 8 -17
6 1 9 -8 7 -21 -3 -16 2 -28 17 -39 12 -8 23 -22 24 -32 1 -9 9 -21 17 -26 8
-5 9 -9 2 -9 -6 0 3 -16 19 -35 17 -19 36 -32 41 -28 6 4 7 1 2 -6 -10 -17
104 -127 158 -151 46 -22 77 -25 77 -10 0 6 -7 10 -16 10 -8 0 -23 7 -31 16
-9 9 -26 14 -40 11 -13 -2 -26 0 -30 6 -3 5 -1 7 5 3 6 -3 14 -1 18 5 5 9 0
10 -16 6 -17 -4 -20 -3 -12 5 9 9 5 16 -15 29 -14 10 -32 15 -38 12 -7 -2 -16
0 -20 6 -3 6 1 11 11 11 15 0 15 2 -2 18 -26 23 -76 90 -93 125 -8 15 -18 27
-23 27 -4 0 -8 11 -8 23 0 13 -9 32 -20 42 -11 10 -20 24 -20 32 0 7 -4 13 -9
13 -6 0 -11 18 -13 41 -2 22 -6 37 -10 33z"/>
<path d="M4240 3893 c0 -9 3 -13 6 -10 7 7 44 -30 44 -45 0 -4 7 -8 16 -8 8 0
12 -4 9 -10 -3 -5 -1 -10 4 -10 6 0 11 -5 11 -10 0 -6 11 -23 25 -38 14 -15
25 -30 25 -34 0 -4 15 -24 33 -44 80 -91 98 -106 114 -100 14 6 14 4 2 -11
-13 -15 -12 -16 8 -11 13 4 26 2 29 -3 3 -5 2 -9 -3 -8 -25 4 -23 -4 5 -24 17
-13 29 -27 25 -30 -3 -4 1 -7 10 -7 10 0 17 -4 17 -10 0 -5 31 -40 69 -77 84
-82 97 -93 110 -93 5 0 11 -5 13 -12 3 -8 9 -8 22 -1 17 9 14 14 -26 41 -25
17 -49 28 -53 24 -3 -4 -5 0 -3 8 1 8 -3 14 -9 12 -7 -1 -13 5 -13 14 0 8 -4
12 -10 9 -5 -3 -10 1 -10 9 0 9 -6 15 -12 14 -7 -2 -12 3 -10 10 1 6 -5 12
-13 12 -8 0 -14 6 -13 13 2 6 -3 11 -9 9 -7 -1 -13 5 -13 13 0 8 -4 14 -9 13
-5 -2 -9 0 -10 5 -1 14 -84 97 -96 97 -7 0 -15 9 -18 20 -3 11 -14 23 -25 27
-21 8 -22 10 -22 39 0 8 -4 13 -8 10 -5 -3 -15 6 -22 19 -7 14 -19 25 -27 25
-7 0 -13 7 -13 15 0 8 -22 37 -48 63 -27 27 -46 54 -44 62 3 9 -1 11 -11 7
-10 -4 -14 -2 -11 6 2 7 -4 13 -16 14 -12 1 -20 -4 -20 -14z"/>
<path d="M2947 3833 c-16 -2 -31 -11 -33 -18 -3 -8 -12 -11 -20 -8 -8 3 -22 2
-31 -3 -14 -6 -11 -9 17 -15 23 -5 14 -6 -26 -2 -39 3 -64 1 -68 -6 -10 -15
-302 -15 -312 0 -4 7 -28 9 -68 6 -33 -3 -47 -2 -31 2 33 7 29 11 -33 31 -38
12 -45 12 -60 -3 -18 -18 -15 -20 38 -19 20 1 21 0 5 -5 -15 -4 -4 -11 40 -25
84 -27 437 -28 521 -2 33 11 49 21 42 25 -7 4 2 7 21 7 18 -1 36 4 41 11 4 7
10 12 14 12 3 -1 7 2 9 7 3 9 -27 11 -66 5z"/>
<path d="M3936 3731 c-5 -15 -4 -26 4 -31 6 -4 12 -11 13 -16 1 -5 6 -8 10 -6
5 1 6 -1 3 -6 -8 -13 33 -74 44 -67 6 4 10 3 8 -2 -3 -16 37 -73 52 -73 10 0
17 -10 18 -28 1 -21 -8 -37 -43 -70 -25 -23 -39 -42 -32 -43 6 0 1 -5 -12 -10
-16 -6 -21 -14 -17 -25 5 -14 4 -15 -9 -4 -12 10 -15 10 -15 -4 0 -11 -7 -16
-17 -14 -11 2 -17 -2 -15 -10 1 -8 -2 -11 -7 -8 -5 3 -19 -7 -32 -23 -13 -16
-27 -28 -30 -25 -4 2 -20 -7 -35 -21 -22 -21 -25 -28 -14 -38 10 -9 13 -9 17
1 3 6 9 12 14 12 5 0 25 14 44 32 27 23 32 34 23 40 -8 6 -5 7 10 3 13 -4 22
-2 22 4 0 6 6 11 14 11 7 0 32 20 55 45 23 25 45 45 50 45 5 0 14 7 21 15 10
12 9 15 -6 16 -18 0 -18 1 1 8 12 5 22 21 26 42 l6 34 2 -33 c0 -19 5 -31 11
-27 19 12 10 50 -20 85 -16 19 -30 40 -30 45 0 6 -5 3 -10 -5 -8 -13 -10 -12
-10 3 0 11 -4 15 -12 11 -7 -4 -8 -3 -4 4 11 17 -16 53 -30 41 -8 -7 -15 -6
-20 2 -4 8 -3 9 4 5 7 -4 12 -1 12 9 0 9 -4 14 -9 11 -5 -4 -12 7 -16 24 -4
16 -10 30 -15 30 -5 0 -10 8 -12 18 -3 14 -6 13 -12 -7z"/>
<path d="M1300 3365 c0 -15 3 -15 15 -5 13 11 14 10 10 -2 -8 -20 49 -69 72
-62 14 5 15 4 4 -4 -11 -8 -8 -16 18 -41 17 -17 36 -31 41 -31 6 0 10 -5 10
-11 0 -6 7 -9 14 -6 11 4 13 1 9 -10 -5 -12 -2 -15 10 -10 11 4 17 1 17 -7 0
-16 27 -29 42 -20 6 4 9 1 6 -7 -6 -19 19 -42 38 -35 9 4 12 2 8 -5 -9 -14 14
-29 46 -29 20 0 22 -2 10 -10 -13 -8 -13 -10 2 -10 9 0 18 -4 20 -8 6 -14 64
-51 91 -57 15 -4 27 -11 27 -16 0 -5 9 -9 20 -9 11 0 20 -5 20 -10 0 -6 14 -9
33 -7 17 2 24 2 15 0 -37 -9 -17 -25 25 -19 23 3 34 3 25 0 -27 -8 -22 -24 7
-24 14 0 25 -4 25 -10 0 -15 61 -22 105 -12 25 7 31 10 17 11 -13 1 -33 6 -45
12 -12 7 -34 12 -49 11 -15 0 -31 4 -34 10 -5 7 -2 8 7 3 9 -5 11 -5 4 2 -14
14 -73 33 -101 33 -14 0 -23 5 -22 12 2 8 -8 12 -27 11 -18 -1 -22 0 -11 4 17
5 16 7 -10 19 -16 8 -44 23 -61 34 -19 11 -40 17 -50 13 -10 -3 -15 -3 -11 2
14 15 -13 35 -41 30 -22 -4 -23 -4 -6 4 19 8 18 9 -8 20 -16 6 -33 11 -39 11
-6 0 -9 3 -5 6 8 8 -19 35 -36 38 -7 1 -34 23 -59 50 -26 26 -51 45 -57 41 -6
-3 -12 -1 -12 4 -1 6 -2 17 -3 24 0 6 -11 13 -24 15 -12 2 -20 8 -17 13 4 5
-1 9 -9 9 -9 0 -16 7 -16 16 0 13 -3 14 -14 5 -11 -9 -14 -8 -12 6 0 9 -7 19
-16 21 -12 2 -18 -3 -18 -13z"/>
<path d="M3749 3194 c-1 -5 0 -13 1 -19 1 -5 -2 -7 -5 -3 -11 11 -45 -11 -45
-28 0 -10 -6 -14 -15 -10 -16 6 -77 -31 -102 -62 -8 -9 -11 -11 -8 -4 6 11 3
11 -14 1 -14 -9 -17 -16 -8 -21 6 -4 -3 -6 -20 -6 -17 1 -41 -6 -54 -16 -13
-9 -33 -16 -44 -17 -20 0 -20 0 0 -10 18 -8 18 -9 -5 -8 -42 2 -51 -1 -45 -11
3 -5 -1 -10 -10 -10 -31 0 -115 -32 -109 -42 3 -5 0 -9 -7 -7 -8 1 -21 1 -29
0 -13 -1 -13 -3 -1 -10 10 -6 -1 -9 -33 -9 -65 0 -68 -8 -6 -17 38 -5 56 -3
75 9 13 9 31 16 39 16 19 0 96 42 96 52 0 4 14 8 30 8 17 0 30 5 30 10 0 5 3
9 8 8 4 -1 21 5 37 12 l30 13 -25 8 c-20 7 -18 8 11 4 26 -4 41 0 57 15 11 11
26 20 32 20 6 0 8 5 5 10 -3 6 2 10 12 10 10 0 25 5 33 10 13 9 13 11 0 20
-11 7 -5 8 19 3 25 -4 32 -3 27 5 -4 8 0 12 11 12 15 0 16 2 3 10 -15 10 -8
14 21 11 26 -3 42 24 24 39 -8 7 -16 9 -16 4z"/>
<path d="M7110 3129 c0 -9 -13 -17 -143 -88 -37 -20 -64 -41 -60 -46 5 -4 -2
-6 -14 -3 -12 3 -37 -2 -55 -12 -18 -9 -50 -23 -71 -30 -22 -7 -50 -18 -64
-25 -22 -12 -23 -14 -6 -19 10 -3 5 -4 -11 -2 -15 2 -58 -4 -94 -12 -55 -14
-62 -18 -42 -23 38 -11 110 -10 110 0 0 6 -12 12 -27 14 -16 2 -7 3 19 0 45
-3 98 12 98 28 0 5 7 6 15 3 8 -4 23 -3 33 2 14 6 12 9 -13 15 -27 6 -26 6 7
4 37 -3 61 9 36 18 -7 2 -3 2 9 0 13 -2 31 1 40 6 10 5 33 15 51 22 25 9 30
14 20 21 -9 6 -8 8 7 7 43 -6 83 21 53 35 -7 3 -2 3 11 0 19 -5 23 -3 18 10
-3 8 -1 18 5 22 6 4 8 3 5 -3 -9 -14 16 -24 33 -13 10 6 9 9 -1 13 -8 3 -3 6
11 7 23 1 23 2 5 9 -16 7 -13 9 18 15 41 8 48 21 17 29 -11 3 -20 1 -20 -4z"/>
</g>
</svg>
