<?xml version="1.0" encoding="utf-8"?>
<!-- Generator: Adobe Illustrator 23.0.3, SVG Export Plug-In . SVG Version: 6.00 Build 0)  -->
<svg version="1.1" id="Layer_1" xmlns="http://www.w3.org/2000/svg" xmlns:xlink="http://www.w3.org/1999/xlink" x="0px" y="0px"
	 viewBox="0 0 27.8 36" style="enable-background:new 0 0 27.8 36;" xml:space="preserve">
<path d="M26.6,23.3H23l-4.6-10.8c0.2-0.6,0.4-1.2,0.4-1.9c0-2.3-1.6-4.3-3.8-4.8V1.2C15,0.5,14.5,0,13.8,0s-1.2,0.5-1.2,1.2v4.7
	c-2.2,0.5-3.8,2.5-3.8,4.8c0,0.7,0.1,1.3,0.4,1.9L4.6,23.3H1.2c-0.7,0-1.2,0.5-1.2,1.2s0.5,1.2,1.2,1.2h2.4l-1.1,2.4
	c-0.4,0.8,0,1.8,0.8,2.2C3.1,31.2,3,32.2,3,33.2s0.1,1.9,0.4,2.8l5.4-12.2l3.7-8.4c0.6,0.3,1.9,0.4,2.5,0.1l3.7,8.5l5.2,11.7
	c0.2-0.8,0.3-1.6,0.3-2.5c0-1.1-0.2-2.1-0.4-3c1-0.3,1.6-1.4,1.2-2.3l-1-2.2h2.6c0.7,0,1.2-0.5,1.2-1.2S27.2,23.3,26.6,23.3z
	 M13.8,13.3c-1.4,0-2.6-1.2-2.6-2.6s1.2-2.6,2.6-2.6s2.6,1.2,2.6,2.6C16.4,12.1,15.3,13.3,13.8,13.3z"/>
<polygon points="17.9,25.7 16.8,23.3 10.5,23.3 9.5,25.7 "/>
</svg>
